<?xml version="1.0" encoding="UTF-8" standalone="no"?>
<svg
   xml:space="preserve"
   id="svg8"
   version="1.1"
   viewBox="0 0 49.207329 47.010083"
   height="177.6759"
   width="185.98045"
   xmlns:xlink="http://www.w3.org/1999/xlink"
   xmlns="http://www.w3.org/2000/svg"
   xmlns:svg="http://www.w3.org/2000/svg"
   xmlns:rdf="http://www.w3.org/1999/02/22-rdf-syntax-ns#"
   xmlns:cc="http://creativecommons.org/ns#"
   xmlns:dc="http://purl.org/dc/elements/1.1/"><defs
     id="defs2"><linearGradient
       id="linearGradient54358"><stop
         style="stop-color:#85153e;stop-opacity:1;"
         offset="0"
         id="stop54354" /><stop
         style="stop-color:#420338;stop-opacity:1;"
         offset="1"
         id="stop54356" /></linearGradient><linearGradient
       id="linearGradient42850"><stop
         style="stop-color:#f9a595;stop-opacity:1;"
         offset="0"
         id="stop42846" /><stop
         style="stop-color:#fdfbda;stop-opacity:1;"
         offset="1"
         id="stop42848" /></linearGradient><linearGradient
       id="linearGradient28473"><stop
         style="stop-color:#85153e;stop-opacity:1;"
         offset="0"
         id="stop28469" /><stop
         style="stop-color:#f9a595;stop-opacity:1;"
         offset="1"
         id="stop28471" /></linearGradient><linearGradient
       xlink:href="#linearGradient28473"
       id="linearGradient27376"
       x1="-908.37878"
       y1="85.396439"
       x2="-908.37878"
       y2="67.713684"
       gradientUnits="userSpaceOnUse" /><linearGradient
       xlink:href="#linearGradient28473"
       id="linearGradient28475"
       x1="-917.84918"
       y1="83.108543"
       x2="-917.84918"
       y2="57.046345"
       gradientUnits="userSpaceOnUse" /><linearGradient
       xlink:href="#linearGradient28473"
       id="linearGradient29278"
       x1="-912.11365"
       y1="57.797047"
       x2="-912.11365"
       y2="67.55365"
       gradientUnits="userSpaceOnUse" /><linearGradient
       xlink:href="#linearGradient28473"
       id="linearGradient29286"
       x1="-917.6554"
       y1="65.521118"
       x2="-917.6554"
       y2="74.759438"
       gradientUnits="userSpaceOnUse" /><linearGradient
       xlink:href="#linearGradient28473"
       id="linearGradient30743"
       x1="-916.02039"
       y1="72.190605"
       x2="-916.02039"
       y2="53.970528"
       gradientUnits="userSpaceOnUse" /><linearGradient
       xlink:href="#linearGradient28473"
       id="linearGradient30751"
       x1="-913.75018"
       y1="65.561096"
       x2="-913.75018"
       y2="48.741852"
       gradientUnits="userSpaceOnUse" /><linearGradient
       xlink:href="#linearGradient28473"
       id="linearGradient30759"
       x1="-912.2135"
       y1="58.615131"
       x2="-912.2135"
       y2="47.773472"
       gradientUnits="userSpaceOnUse" /><linearGradient
       xlink:href="#linearGradient28473"
       id="linearGradient31892"
       x1="-917.84918"
       y1="83.108543"
       x2="-917.84918"
       y2="58.083878"
       gradientUnits="userSpaceOnUse" /><linearGradient
       xlink:href="#linearGradient28473"
       id="linearGradient31900"
       x1="-917.25165"
       y1="89.652946"
       x2="-917.25165"
       y2="80.955215"
       gradientUnits="userSpaceOnUse" /><linearGradient
       xlink:href="#linearGradient28473"
       id="linearGradient37431"
       x1="-917.32721"
       y1="88.676392"
       x2="-917.32721"
       y2="80.955215"
       gradientUnits="userSpaceOnUse" /><linearGradient
       xlink:href="#linearGradient28473"
       id="linearGradient37439"
       x1="-915.75323"
       y1="87.393921"
       x2="-915.75323"
       y2="78.007454"
       gradientUnits="userSpaceOnUse" /><linearGradient
       xlink:href="#linearGradient28473"
       id="linearGradient38575"
       x1="-917.84918"
       y1="83.108543"
       x2="-917.84918"
       y2="55.955292"
       gradientUnits="userSpaceOnUse" /><linearGradient
       xlink:href="#linearGradient42850"
       id="linearGradient42852"
       x1="-911.07745"
       y1="74.854004"
       x2="-905.23779"
       y2="69.014336"
       gradientUnits="userSpaceOnUse" /><linearGradient
       xlink:href="#linearGradient42850"
       id="linearGradient44332"
       x1="-922.70203"
       y1="66.838989"
       x2="-928.75732"
       y2="60.783699"
       gradientUnits="userSpaceOnUse"
       gradientTransform="translate(5.1203029e-5)" /><linearGradient
       xlink:href="#linearGradient42850"
       id="linearGradient44340"
       x1="-900.66498"
       y1="67.340874"
       x2="-896.59802"
       y2="60.296738"
       gradientUnits="userSpaceOnUse" /><linearGradient
       xlink:href="#linearGradient28473"
       id="linearGradient45483"
       x1="-898.05554"
       y1="67.707153"
       x2="-898.05554"
       y2="55.807816"
       gradientUnits="userSpaceOnUse" /><linearGradient
       xlink:href="#linearGradient28473"
       id="linearGradient45493"
       x1="-909.25177"
       y1="75.170265"
       x2="-909.25177"
       y2="65.605774"
       gradientUnits="userSpaceOnUse" /><linearGradient
       xlink:href="#linearGradient54358"
       id="linearGradient48407"
       x1="-923.8573"
       y1="70.663391"
       x2="-923.8573"
       y2="60.841843"
       gradientUnits="userSpaceOnUse" /><linearGradient
       xlink:href="#linearGradient28473"
       id="linearGradient50697"
       x1="-927.62585"
       y1="80.501175"
       x2="-927.62585"
       y2="67.321869"
       gradientUnits="userSpaceOnUse" /><linearGradient
       xlink:href="#linearGradient28473"
       id="linearGradient51500"
       x1="-894.57251"
       y1="76.590439"
       x2="-894.57251"
       y2="69.4198"
       gradientUnits="userSpaceOnUse" /><linearGradient
       xlink:href="#linearGradient28473"
       id="linearGradient54333"
       x1="-899.32941"
       y1="96.998932"
       x2="-899.32941"
       y2="83.769699"
       gradientUnits="userSpaceOnUse" /><linearGradient
       xlink:href="#linearGradient28473"
       id="linearGradient54341"
       x1="-896.26312"
       y1="83.465881"
       x2="-896.26312"
       y2="76.2528"
       gradientUnits="userSpaceOnUse" /><linearGradient
       xlink:href="#linearGradient54358"
       id="linearGradient54352"
       x1="-924.89783"
       y1="72.988487"
       x2="-924.89783"
       y2="79.271935"
       gradientUnits="userSpaceOnUse" /><linearGradient
       xlink:href="#linearGradient54358"
       id="linearGradient59277"
       x1="-899.78644"
       y1="95.041252"
       x2="-899.78644"
       y2="83.768684"
       gradientUnits="userSpaceOnUse" /><linearGradient
       xlink:href="#linearGradient54358"
       id="linearGradient59285"
       x1="-896.82617"
       y1="84.771744"
       x2="-896.82617"
       y2="99.595848"
       gradientUnits="userSpaceOnUse" /><linearGradient
       xlink:href="#linearGradient28473"
       id="linearGradient59293"
       x1="-893.85992"
       y1="80.439888"
       x2="-893.85992"
       y2="91.445518"
       gradientUnits="userSpaceOnUse" /><linearGradient
       xlink:href="#linearGradient54358"
       id="linearGradient59301"
       x1="-895.17413"
       y1="71.496017"
       x2="-895.17413"
       y2="81.30381"
       gradientUnits="userSpaceOnUse" /><linearGradient
       xlink:href="#linearGradient54358"
       id="linearGradient59309"
       x1="-926.71637"
       y1="72.113602"
       x2="-926.71637"
       y2="81.427528"
       gradientUnits="userSpaceOnUse" /><linearGradient
       xlink:href="#linearGradient28473"
       id="linearGradient59733"
       x1="-908.71863"
       y1="86.528252"
       x2="-908.71863"
       y2="80.405151"
       gradientUnits="userSpaceOnUse" /></defs><metadata
     id="metadata5"><rdf:RDF><cc:Work
         rdf:about=""><dc:format>image/svg+xml</dc:format><dc:type
           rdf:resource="http://purl.org/dc/dcmitype/StillImage" /></cc:Work></rdf:RDF></metadata><g
     id="layer1"
     style="display:inline;opacity:1"
     transform="translate(885.9173,-110.17552)"><g
       id="g84409"
       transform="translate(50.79947,56.204995)"><path
         id="path72639"
         style="color:#000000;fill:#ffffff;stroke-width:3.96875;-inkscape-stroke:none"
         d="m -912.14049,53.970526 c -3.351,-3.83e-4 -6.70991,0.741278 -9.81439,2.267562 -0.79302,0.38988 -1.32136,1.043888 -1.59215,1.787488 -0.0406,-0.005 -0.0704,-0.04087 -0.1111,-0.04496 -1.84189,-0.184765 -3.62186,0.56656 -4.77336,2.01538 -0.71983,0.905689 -0.99452,1.992509 -1.04696,3.105754 -0.34322,0.188872 -0.68751,0.378626 -0.9803,0.65009 -0.2942,0.272755 -0.54749,0.5768 -0.76171,0.906404 v 0.0021 c -0.35696,0.549563 -0.6037,1.165691 -0.71521,1.824178 -0.0128,0.07546 0.0192,0.149216 0.0103,0.224793 -0.85737,0.53266 -1.52728,1.297765 -1.84227,2.269112 -0.27068,0.834719 -0.27906,1.718796 -0.0253,2.559017 0.0793,0.262695 0.32439,0.423019 0.44959,0.661975 -0.0426,0.120845 -0.13764,0.216821 -0.17002,0.341581 -0.028,0.10803 -0.005,0.217355 -0.0253,0.326079 l -0.96686,-0.581877 0.12867,6.224426 -2.33991,2.338359 1.14257,1.390613 c 0.52773,0.642814 1.12221,1.228409 1.77353,1.745629 0.29188,0.231783 0.64205,0.364755 0.95343,0.566374 -0.11534,0.307538 -0.334,0.563973 -0.41031,0.886768 -0.44451,1.880229 -0.18622,3.861891 0.72244,5.566585 0.90877,1.704865 2.41044,3.022028 4.21886,3.701066 2.08345,0.78232 4.40774,0.654648 6.39238,-0.353467 l 0.67386,-0.343648 9.13691,6.972703 9.13691,-6.972703 0.67386,0.343648 c 1.98463,1.008111 4.30892,1.135777 6.39237,0.353467 1.80843,-0.679037 3.31217,-1.996189 4.22093,-3.701066 0.90862,-1.704671 1.16489,-3.686339 0.72037,-5.566585 -0.0764,-0.323026 -0.29433,-0.579161 -0.40979,-0.886768 0.31139,-0.201617 0.661,-0.334566 0.95291,-0.566374 0.65088,-0.516853 1.24532,-1.102232 1.77354,-1.745629 l 1.14256,-1.390613 -2.33784,-2.338359 0.12868,-6.3531 -0.55656,0.357084 c 0.29606,-0.972018 0.31681,-1.992243 -0.16226,-2.92747 -0.0448,-0.0874 -0.13883,-0.122702 -0.18914,-0.205156 0.10644,-0.175482 0.29304,-0.290515 0.3731,-0.482657 0.52474,-1.259415 0.40311,-2.642796 -0.33434,-3.790984 -0.30927,-0.481527 -0.73968,-0.828931 -1.19114,-1.134814 -0.0111,-0.465386 -0.0344,-0.933134 -0.18966,-1.386479 -0.39485,-1.152929 -1.20932,-2.082859 -2.30063,-2.625162 -0.96479,-0.479418 -2.08605,-0.623762 -3.1936,-0.293006 -1.03135,0.307995 -1.8722,1.029672 -2.38849,2.027267 -0.32612,-0.399328 -0.61944,-0.823682 -0.98237,-1.189075 0.0189,-0.0393 0.0744,-0.04977 0.0915,-0.08992 0.67898,-1.597103 0.0653,-3.506394 -1.60145,-4.275708 -3.09914,-1.430429 -6.44579,-2.16951 -9.79682,-2.169894 z" /><path
         id="path12495"
         style="font-variation-settings:normal;opacity:1;vector-effect:none;fill:url(#linearGradient59293);fill-opacity:1;stroke:none;stroke-width:0.264583px;stroke-linecap:butt;stroke-linejoin:miter;stroke-miterlimit:4;stroke-dasharray:none;stroke-dashoffset:0;stroke-opacity:1;stop-color:#000000;stop-opacity:1"
         d="m -932.44778,75.836892 0.0713,3.477307 -1.66449,1.665015 c 0.43838,0.533977 0.93329,1.020922 1.47432,1.450557 1.52948,1.21456 3.43087,1.954231 5.379,2.092896 l 3.75171,-1.672249 -1.46192,-4.321184 c -2.01131,-0.291351 -3.97844,-0.886918 -5.8136,-1.760099 -0.59338,-0.282334 -1.17311,-0.593721 -1.73633,-0.932243 z m 40.66884,0 c -0.56322,0.338522 -1.14295,0.649909 -1.73633,0.932243 -1.83516,0.873181 -3.80178,1.468748 -5.81308,1.760099 l -1.46245,4.321184 3.75223,1.672249 c 1.94814,-0.138665 3.849,-0.878336 5.37848,-2.092896 0.54104,-0.429635 1.03647,-0.91658 1.47485,-1.450557 l -1.66502,-1.665015 z" /><path
         id="path12497"
         style="font-variation-settings:normal;opacity:1;vector-effect:none;fill:url(#linearGradient54341);fill-opacity:1;stroke:none;stroke-width:0.264583px;stroke-linecap:butt;stroke-linejoin:miter;stroke-miterlimit:4;stroke-dasharray:none;stroke-dashoffset:0;stroke-opacity:1;stop-color:#000000;stop-opacity:1"
         d="m -932.44778,75.836892 0.0713,3.477307 c 1.02319,0.689237 2.1382,1.242755 3.30575,1.641244 1.67973,0.573301 3.46902,0.821861 5.24154,0.732772 l -1.06867,-3.158981 c -2.01131,-0.29135 -3.97845,-0.886919 -5.8136,-1.760099 -0.59338,-0.282334 -1.17311,-0.593722 -1.73633,-0.932243 z m 40.66935,0 c -0.56322,0.338521 -1.14295,0.649909 -1.73633,0.932243 -1.83514,0.87318 -3.80229,1.468749 -5.81359,1.760099 l -1.06867,3.158981 c 1.77252,0.08909 3.5618,-0.159471 5.24154,-0.732772 1.16755,-0.398489 2.28255,-0.952007 3.30574,-1.641244 z" /><path
         id="path12499"
         style="font-variation-settings:normal;opacity:1;vector-effect:none;fill:url(#linearGradient54333);fill-opacity:1;stroke:none;stroke-width:0.264583px;stroke-linecap:butt;stroke-linejoin:miter;stroke-miterlimit:4;stroke-dasharray:none;stroke-dashoffset:0;stroke-opacity:1;stop-color:#000000;stop-opacity:1"
         d="m -925.56913,81.304259 c -1.20977,0.01264 -2.41539,0.396898 -3.40289,1.09709 -1.17038,0.829859 -2.02378,2.096051 -2.35386,3.492294 -0.33009,1.396241 -0.13382,2.910394 0.54105,4.176489 0.67488,1.266094 1.82254,2.27275 3.1657,2.777091 1.54284,0.579322 3.32676,0.480745 4.79609,-0.265616 l 0.84956,-8.216036 -2.92437,-3.02979 c -0.22294,-0.02352 -0.44725,-0.03386 -0.67128,-0.03152 z m 26.77718,0 c -0.17923,0.0022 -0.35805,0.01271 -0.5364,0.03152 l -2.92437,3.02979 0.84956,8.216036 c 1.46933,0.74636 3.25324,0.844937 4.79609,0.265616 1.34317,-0.504341 2.49083,-1.510996 3.1657,-2.777091 0.67486,-1.266095 0.87114,-2.780247 0.54105,-4.176489 -0.33008,-1.396243 -1.18348,-2.662435 -2.35386,-3.492294 -1.02409,-0.726126 -2.2832,-1.112623 -3.53777,-1.09709 z" /><path
         id="path12501"
         style="font-variation-settings:normal;opacity:1;vector-effect:none;fill:url(#linearGradient59285);fill-opacity:1;stroke:none;stroke-width:0.264583px;stroke-linecap:butt;stroke-linejoin:miter;stroke-miterlimit:4;stroke-dasharray:none;stroke-dashoffset:0;stroke-opacity:1;stop-color:#000000;stop-opacity:1"
         d="m -924.89785,83.768708 c -0.92112,-0.0033 -1.83834,0.364448 -2.50218,1.003039 -0.66382,0.638593 -1.06678,1.540792 -1.09915,2.461349 -0.0327,0.928729 0.31412,1.868028 0.95343,2.54248 0.63931,0.674454 1.56524,1.071998 2.49442,1.056783 1.02776,-0.01683 2.0346,-0.5466 2.63085,-1.383895 0.59625,-0.837295 0.76722,-1.961574 0.447,-2.938322 z m 25.5695,0 -2.92437,2.741434 c -0.32022,0.976748 -0.14925,2.101027 0.447,2.938322 0.59625,0.837295 1.60309,1.367065 2.63085,1.383895 0.92917,0.01521 1.85459,-0.382329 2.4939,-1.056783 0.63931,-0.674452 0.98665,-1.613751 0.95395,-2.54248 -0.0324,-0.920557 -0.43533,-1.822756 -1.09916,-2.461349 -0.66384,-0.638591 -1.58105,-1.006339 -2.50217,-1.003039 z" /><path
         id="path3514"
         style="font-variation-settings:normal;opacity:1;vector-effect:none;fill:url(#linearGradient59277);fill-opacity:1;stroke:none;stroke-width:0.264583px;stroke-linecap:butt;stroke-linejoin:miter;stroke-miterlimit:4;stroke-dasharray:none;stroke-dashoffset:0;stroke-opacity:1;stop-color:#000000;stop-opacity:1"
         d="m -924.89785,72.988487 v 15.739091 l 12.78423,9.757027 12.78423,-9.757027 V 72.988487 l -12.78423,8.543665 z" /><path
         id="path3520"
         style="font-variation-settings:normal;opacity:1;vector-effect:none;fill:url(#linearGradient54352);fill-opacity:1;stroke:none;stroke-width:0.264583px;stroke-linecap:butt;stroke-linejoin:miter;stroke-miterlimit:4;stroke-dasharray:none;stroke-dashoffset:0;stroke-opacity:1;stop-color:#000000;stop-opacity:1"
         d="m -925.80787,74.192548 -1.17771,0.797367 -1.58078,0.756543 c -0.1695,0.622705 -0.0929,1.308962 0.2098,1.878955 0.25828,0.48643 0.6772,0.885577 1.17564,1.119829 0.49845,0.234252 1.07349,0.302271 1.61282,0.190686 0.53933,-0.111584 1.04,-0.402131 1.40457,-0.814938 0.36457,-0.412806 0.59104,-0.9455 0.6351,-1.494482 z m 27.3885,0 -2.27944,2.43396 c 0.0441,0.548982 0.27053,1.081676 0.6351,1.494482 0.36457,0.412807 0.86524,0.703354 1.40457,0.814938 0.53933,0.111585 1.11437,0.04357 1.61282,-0.190686 0.49844,-0.234252 0.91736,-0.633399 1.17564,-1.119829 0.30266,-0.569993 0.3793,-1.25625 0.2098,-1.878955 l -1.58078,-0.756543 z" /><path
         style="font-variation-settings:normal;opacity:1;vector-effect:none;fill:url(#linearGradient51500);fill-opacity:1;stroke:none;stroke-width:0.264583px;stroke-linecap:butt;stroke-linejoin:miter;stroke-miterlimit:4;stroke-dasharray:none;stroke-dashoffset:0;stroke-opacity:1;stop-color:#000000;stop-opacity:1"
         d="m -899.40384,72.836298 1.20331,2.422494 2.91712,0.01682 0.95863,-2.152715 1.46318,-0.639087 0.25227,-1.479992 -0.32509,-1.295747 -1.85059,0.567965 -4.36641,0.122359"
         id="path2471" /><path
         style="font-variation-settings:normal;opacity:1;vector-effect:none;fill:url(#linearGradient59301);fill-opacity:1;stroke:none;stroke-width:0.264583px;stroke-linecap:butt;stroke-linejoin:miter;stroke-miterlimit:4;stroke-dasharray:none;stroke-dashoffset:0;stroke-opacity:1;stop-color:#000000;stop-opacity:1"
         d="m -893.77417,69.419796 c 0.65711,0.06556 1.2687,0.48255 1.56977,1.070297 0.29154,0.569134 0.28457,1.281187 -0.018,1.844511 -0.30261,0.563323 -0.89246,0.962255 -1.52795,1.033397 0.0253,0.561996 -0.12634,1.130675 -0.42812,1.605445 -0.29189,0.459199 -0.72274,0.828774 -1.22101,1.047361 -0.49828,0.218587 -1.06199,0.285309 -1.59753,0.18909 -0.53554,-0.09622 -1.04077,-0.354998 -1.43179,-0.733365 -0.39102,-0.378366 -0.66628,-0.874807 -0.78006,-1.406892 l 0.49947,-0.987051 c -0.0112,0.433184 0.12501,0.868845 0.38089,1.218554 0.25588,0.349708 0.62991,0.611331 1.04617,0.731764 0.34084,0.09861 0.70837,0.103192 1.05155,0.0131 0.34319,-0.09009 0.66109,-0.274596 0.90954,-0.5279 0.24846,-0.253303 0.42679,-0.574704 0.51023,-0.919567 0.0834,-0.344863 0.0718,-0.712238 -0.0334,-1.051104 0.25129,0.10654 0.53875,0.125442 0.80183,0.05272 0.26307,-0.07272 0.50002,-0.23658 0.66091,-0.457056 0.15292,-0.209554 0.23647,-0.468869 0.23464,-0.728282 -0.002,-0.259413 -0.089,-0.517523 -0.24489,-0.7249 -0.15586,-0.207377 -0.37955,-0.3629 -0.62823,-0.436785 -0.24867,-0.07389 -0.52099,-0.06573 -0.7648,0.02289"
         id="path2225" /><rect
         style="fill:url(#linearGradient27376);fill-opacity:1;stroke:none;stroke-width:1.36803;stroke-linecap:round;stroke-linejoin:round;stroke-miterlimit:1.5;paint-order:stroke markers fill;stop-color:#000000"
         id="rect1078"
         width="27.826265"
         height="27.826265"
         x="-926.02679"
         y="57.797047"
         rx="13.913132"
         ry="13.913132" /><path
         id="path4089"
         style="font-variation-settings:normal;opacity:1;vector-effect:none;fill:url(#linearGradient28475);fill-opacity:1;stroke:none;stroke-width:0.264583px;stroke-linecap:butt;stroke-linejoin:miter;stroke-miterlimit:4;stroke-dasharray:none;stroke-dashoffset:0;stroke-opacity:1;stop-color:#000000;stop-opacity:1"
         d="m -916.55573,58.516502 c -2.72269,0.910955 -5.06459,2.637832 -6.7386,4.893242 l 0.0749,1.300695 -1.53376,6.847644 4.69842,0.52555 v 2.108915 c 0.22944,2.11e-4 0.45889,2.11e-4 0.68833,0 1.04653,-9.6e-4 2.09338,-0.0063 3.13986,-0.01602 v 2.0252 c 0.40431,0.0037 0.80854,0.0037 1.21285,0 1.29692,-0.01171 2.59355,-0.06101 3.88762,-0.147795 l -0.43874,-3.562056 c 0.053,-0.514613 0.085,-1.031536 0.0961,-1.548743 0.0214,-0.998293 -0.0355,-1.997992 -0.17001,-2.987415 l -3.04168,-0.0739 v -4.008024 -3.063896 l -1.95078,-0.118856 z m 14.0932,13.373344 v 4.784204 h 3.35587 c 0.49523,-1.303899 0.80102,-2.70256 0.88315,-4.163053 z m -23.11022,3.370337 c 1.4e-4,5.27e-4 3.8e-4,9.5e-4 5.2e-4,0.0016 l 5.2e-4,-0.0016 c -3.4e-4,3.8e-5 -7.4e-4,-3.8e-5 -10e-4,0 z m 5.2e-4,0.0016 h -10e-4 l 10e-4,5.17e-4 c 1.10294,4.218258 4.12641,7.643937 8.0884,9.294007 0.77112,0.243527 1.54201,0.488273 2.31303,0.732255 0.98325,0.218834 2.00613,0.334863 3.05718,0.334863 2.85275,0 5.49918,-0.850426 7.70186,-2.312004 l 0.0465,-0.09767 v -4.607988 h -2.99361 V 76.20436 l -4.5744,1.803507 h -5.68441 c -0.0424,-0.915352 -0.0837,-1.82986 -0.0837,-2.746086 z" /><path
         id="rect804"
         style="fill:#85153e;fill-opacity:1;stroke-width:1.20063;stroke-linecap:round;stroke-linejoin:round;stroke-miterlimit:1.5;paint-order:stroke markers fill;stop-color:#000000"
         d="m -923.95217,72.190603 c -0.71154,0 -1.28468,0.573146 -1.28468,1.284676 0,0.711531 0.57314,1.284159 1.28468,1.284159 0.71153,0 1.28416,-0.572628 1.28416,-1.284159 0,-0.71153 -0.57263,-1.284676 -1.28416,-1.284676 z m 3.96565,0 c -0.71154,0 -1.28416,0.573146 -1.28416,1.284676 0,0.711531 0.57262,1.284159 1.28416,1.284159 0.71151,0 1.28467,-0.572628 1.28467,-1.284159 0,-0.71153 -0.57316,-1.284676 -1.28467,-1.284676 z m 3.96616,0 c -0.71153,0 -1.28416,0.573146 -1.28416,1.284676 0,0.711531 0.57263,1.284159 1.28416,1.284159 0.71153,0 1.28468,-0.572628 1.28468,-1.284159 0,-0.71153 -0.57315,-1.284676 -1.28468,-1.284676 z m 3.96617,0 c -0.0222,0 -0.0442,4.44e-4 -0.0662,0.0016 -0.68047,0.03429 -1.21801,0.593831 -1.21801,1.283126 0,0.711531 0.57263,1.284159 1.28416,1.284159 0.71153,0 1.28416,-0.572628 1.28416,-1.284159 0,-0.71153 -0.57263,-1.284676 -1.28416,-1.284676 z m 3.96616,0 c -0.71153,0 -1.28467,0.573146 -1.28467,1.284676 0,0.711531 0.57314,1.284159 1.28467,1.284159 0.71153,0 1.28416,-0.572628 1.28416,-1.284159 0,-0.71153 -0.57263,-1.284676 -1.28416,-1.284676 z m 3.96617,0 c -0.71153,0 -1.28468,0.573146 -1.28468,1.284676 0,0.711531 0.57315,1.284159 1.28468,1.284159 0.71154,0 1.28416,-0.572628 1.28416,-1.284159 0,-0.71153 -0.57262,-1.284676 -1.28416,-1.284676 z m 3.96565,0 c -0.71153,0 -1.28416,0.573146 -1.28416,1.284676 0,0.711531 0.57263,1.284159 1.28416,1.284159 0.71154,0 1.28468,-0.572628 1.28468,-1.284159 0,-0.71153 -0.57314,-1.284676 -1.28468,-1.284676 z" /><rect
         style="fill:url(#linearGradient30743);fill-opacity:1;stroke:none;stroke-width:1.07048;stroke-linecap:round;stroke-linejoin:round;stroke-miterlimit:1.5;paint-order:stroke markers fill;stop-color:#000000"
         id="rect5308"
         width="31.700964"
         height="2.4571266"
         x="-927.96411"
         y="70.481613"
         rx="1.2285633"
         ry="1.2285633" /><path
         style="font-variation-settings:normal;opacity:1;vector-effect:none;fill:url(#linearGradient50697);fill-opacity:1;stroke:none;stroke-width:0.264583px;stroke-linecap:butt;stroke-linejoin:miter;stroke-miterlimit:4;stroke-dasharray:none;stroke-dashoffset:0;stroke-opacity:1;stop-color:#000000;stop-opacity:1"
         d="m -929.00367,68.111107 c -0.57027,-0.180582 -1.21108,-0.126432 -1.74296,0.147286 -0.53189,0.273718 -0.94841,0.763691 -1.13293,1.332704 -0.14321,0.441619 -0.14813,0.926997 -0.0139,1.371429 0.13422,0.444432 0.40699,0.845944 0.77071,1.134466 -0.28219,0.385268 -0.44296,0.858133 -0.45409,1.335561 -0.0172,0.736118 0.33462,1.471694 0.91841,1.920421 0.58378,0.448726 1.38509,0.599464 2.09203,0.393542 l 1.3788,-1.666976 2.82572,-0.04847 0.50455,-3.367678 -1.17917,-1.122751 -2.15116,-0.403634"
         id="path1727" /><path
         id="path1627"
         style="font-variation-settings:normal;opacity:1;vector-effect:none;fill:url(#linearGradient59309);fill-opacity:1;stroke:none;stroke-width:0.264583px;stroke-linecap:butt;stroke-linejoin:miter;stroke-miterlimit:4;stroke-dasharray:none;stroke-dashoffset:0;stroke-opacity:1;stop-color:#000000;stop-opacity:1"
         d="m -929.86137,70.19641 c -0.0799,0.339179 -0.0245,0.70842 0.15141,1.00924 0.1383,0.236566 0.34631,0.428131 0.58291,0.566374 0.2366,0.138243 0.50118,0.224867 0.77049,0.275435 0.14629,0.02747 0.29377,0.04438 0.44184,0.05478 -0.003,0.05281 -0.01,0.105266 -0.0202,0.157097 -0.045,0.220778 -0.1617,0.426442 -0.32866,0.577742 -0.25011,0.226651 -0.61214,0.323471 -0.94206,0.252181 0.30792,0.203294 0.68963,0.292267 1.05575,0.246497 0.36613,-0.04577 0.71382,-0.225836 0.96221,-0.498678 0.18449,-0.20265 0.31068,-0.455827 0.36897,-0.72347 0.0341,-6e-6 0.0682,-2.93e-4 0.10232,0 0.23432,0.002 0.47086,0.01283 0.69764,0.07183 0.29428,0.07656 0.56643,0.235578 0.77773,0.454236 0.11279,0.116718 0.20778,0.250033 0.28215,0.394291 -0.16006,0.256385 -0.38401,0.47221 -0.64647,0.622185 -0.26953,0.154016 -0.57895,0.238102 -0.88935,0.241845 -0.31041,0.0037 -0.62136,-0.07267 -0.89452,-0.220141 -0.12388,0.347164 -0.34413,0.659161 -0.62994,0.891935 -0.28581,0.232774 -0.63643,0.385627 -1.00149,0.436666 -0.36334,0.0508 -0.73998,7.69e-4 -1.07745,-0.143144 -0.33747,-0.143913 -0.6347,-0.381142 -0.84956,-0.678511 -0.21487,-0.297373 -0.34709,-0.653988 -0.37776,-1.019576 -0.0307,-0.365591 0.0402,-0.739142 0.20257,-1.068152 -0.22049,0.276403 -0.38194,0.599309 -0.47077,0.941544 -0.15082,0.581109 -0.0857,1.21598 0.17984,1.754415 0.26555,0.538439 0.72923,0.976205 1.28209,1.210262 0.55286,0.234057 1.19021,0.262117 1.76165,0.07803 0.57144,-0.184088 1.07214,-0.57865 1.38441,-1.091407 0.73807,0.340021 1.61527,0.36481 2.37143,0.06718 0.73895,-0.29086 1.3529,-0.885261 1.6676,-1.614372 0.2514,-0.582459 0.30947,-1.245151 0.17208,-1.863969 -0.10233,0.01177 -0.20548,0.01888 -0.30851,0.02015 -0.24767,0.0031 -0.49527,-0.02512 -0.73639,-0.08165 -0.36718,-0.360252 -0.8433,-0.608825 -1.34927,-0.702283 h -5.1e-4 -5.2e-4 c -0.45704,-0.08423 -0.92857,-0.04476 -1.38648,0.03462 -0.45808,0.07941 -0.90888,0.197865 -1.36787,0.271818 -0.28499,0.04592 -0.57805,0.07459 -0.86093,0.01705 -0.24438,-0.04971 -0.47533,-0.163927 -0.66301,-0.328145 -0.18768,-0.164219 -0.3317,-0.378299 -0.41341,-0.613916 z m 4.53512,0.467154 c 0.002,0.0015 0.003,0.0031 0.005,0.0047 -0.001,-0.0015 -0.003,-0.0032 -0.004,-0.0047 z" /><path
         id="rect783"
         style="fill:#85153e;fill-opacity:1;stroke-width:1.20063;stroke-linecap:round;stroke-linejoin:round;stroke-miterlimit:1.5;paint-order:stroke markers fill;stop-color:#000000"
         d="m -914.20652,66.838992 c -0.71153,0 -1.28467,0.573143 -1.28467,1.284676 0,0.711532 0.57314,1.284159 1.28467,1.284159 0.71154,0 1.28416,-0.572627 1.28416,-1.284159 0,-0.711533 -0.57262,-1.284676 -1.28416,-1.284676 z m 4.1858,0 c -0.71154,0 -1.28416,0.573143 -1.28416,1.284676 0,0.711532 0.57262,1.284159 1.28416,1.284159 0.71153,0 1.28467,-0.572627 1.28467,-1.284159 0,-0.711533 -0.57314,-1.284676 -1.28467,-1.284676 z m -8.02484,0.190686 c -0.69604,0.01752 -1.25108,0.583744 -1.25108,1.284159 0,0.711532 0.57314,1.284159 1.28467,1.284159 0.71153,0 1.28416,-0.572627 1.28416,-1.284159 0,-0.711532 -0.57263,-1.284159 -1.28416,-1.284159 -0.0111,0 -0.0225,-2.78e-4 -0.0336,0 z m 11.79722,0 c -0.69605,0.01752 -1.25109,0.583744 -1.25109,1.284159 0,0.711532 0.57263,1.284159 1.28416,1.284159 0.71153,0 1.28467,-0.572627 1.28467,-1.284159 0,-0.711532 -0.57314,-1.284159 -1.28467,-1.284159 -0.0111,0 -0.022,-2.78e-4 -0.0331,0 z m 3.76721,0.332796 c -0.71154,0 -1.28416,0.572627 -1.28416,1.284159 0,0.711533 0.57262,1.284676 1.28416,1.284676 0.71153,0 1.28467,-0.573143 1.28467,-1.284676 0,-0.711532 -0.57314,-1.284159 -1.28467,-1.284159 z" /><path
         id="path1445"
         style="color:#000000;fill:url(#linearGradient29286);fill-opacity:1;stroke-linecap:round;stroke-linejoin:round;-inkscape-stroke:none"
         d="m -909.70705,63.844859 a 0.66145998,0.66145998 0 0 0 -0.64079,0.60048 l -0.33383,3.617351 a 0.66145998,0.66145998 0 0 0 0.5979,0.718302 0.66145998,0.66145998 0 0 0 0.72037,-0.59738 l 0.33435,-3.615283 a 0.66145998,0.66145998 0 0 0 -0.5979,-0.720886 0.66145998,0.66145998 0 0 0 -0.0801,-0.0026 z m -4.81469,5.17e-4 a 0.66145998,0.66145998 0 0 0 -0.0796,0.0021 0.66145998,0.66145998 0 0 0 -0.5979,0.720886 l 0.33383,3.615283 a 0.66145998,0.66145998 0 0 0 0.71882,0.59738 0.66145998,0.66145998 0 0 0 0.5979,-0.718302 l -0.33435,-3.617351 a 0.66145998,0.66145998 0 0 0 -0.63872,-0.599963 z m -4.79144,0.661975 a 0.66145998,0.66145998 0 0 0 -0.23358,0.04909 0.66145998,0.66145998 0 0 0 -0.36122,0.861446 l 1.28313,3.146578 a 0.66145998,0.66145998 0 0 0 0.863,0.361218 0.66145998,0.66145998 0 0 0 0.36121,-0.861446 l -1.28312,-3.146061 a 0.66145998,0.66145998 0 0 0 -0.62942,-0.410828 z m 14.39654,5.17e-4 a 0.66145998,0.66145998 0 0 0 -0.62839,0.410311 l -1.28519,3.146061 a 0.66145998,0.66145998 0 0 0 0.36328,0.861446 0.66145998,0.66145998 0 0 0 0.86145,-0.361218 l 1.28519,-3.146578 a 0.66145998,0.66145998 0 0 0 -0.36328,-0.861446 0.66145998,0.66145998 0 0 0 -0.23306,-0.04858 z m 4.49585,0.787032 a 0.66145998,0.66145998 0 0 0 -0.55553,0.261483 l -2.0314,2.691825 a 0.66145998,0.66145998 0 0 0 0.12868,0.925525 0.66145998,0.66145998 0 0 0 0.92604,-0.128674 l 2.03295,-2.689759 a 0.66145998,0.66145998 0 0 0 -0.13074,-0.927592 0.66145998,0.66145998 0 0 0 -0.37,-0.132808 z" /><path
         id="rect5644"
         style="fill:url(#linearGradient30751);fill-opacity:1;stroke:none;stroke-width:1.01569;stroke-linecap:round;stroke-linejoin:round;stroke-miterlimit:1.5;paint-order:stroke markers fill;stop-color:#000000"
         d="m -925.65614,63.266878 c -0.68423,0.159904 -1.09473,0.838411 -0.92488,1.505639 0.16985,0.667228 0.83252,1.069201 1.48988,0.916106 8.39697,-1.955586 17.23376,-2.135151 25.54975,-0.07537 0.65103,0.161252 1.31772,-0.228405 1.49958,-0.892437 0.18186,-0.66403 -0.21941,-1.350149 -0.90413,-1.518761 -8.74647,-2.153798 -17.97007,-1.977749 -26.7102,0.06482 z"
         transform="translate(0.09999822,1.4035675)"
         class="UnoptimicedTransforms" /><path
         style="font-variation-settings:normal;opacity:1;vector-effect:none;fill:url(#linearGradient44332);fill-opacity:1;stroke:none;stroke-width:0.264583px;stroke-linecap:butt;stroke-linejoin:miter;stroke-miterlimit:4;stroke-dasharray:none;stroke-dashoffset:0;stroke-opacity:1;stop-color:#000000;stop-opacity:1"
         d="m -929.55713,65.739902 0.26755,2.085296 1.24454,1.244539 2.27473,-0.04361 2.53524,1.372238 c 0.762,-0.04132 1.49722,-0.438945 1.94892,-1.054027 0.4517,-0.615081 0.61106,-1.435601 0.42243,-2.175045 -0.13969,-0.547592 -0.46415,-1.046307 -0.90817,-1.395904 0.4532,-0.455762 0.77398,-1.041693 0.91375,-1.669042 0.13978,-0.62735 0.0981,-1.294042 -0.11874,-1.899092 -0.21684,-0.60505 -0.60812,-1.146457 -1.11456,-1.542214 -0.50644,-0.395757 -1.12637,-0.644555 -1.76589,-0.708707 -1.13434,-0.113789 -2.31183,0.38354 -3.02116,1.276024 -0.70933,0.892485 -0.92801,2.151849 -0.5611,3.231223 l -0.77553,0.185385"
         id="path1623" /><path
         id="path1619"
         style="font-variation-settings:normal;opacity:1;vector-effect:none;fill:url(#linearGradient48407);fill-opacity:1;stroke:none;stroke-width:0.264583px;stroke-linecap:butt;stroke-linejoin:miter;stroke-miterlimit:4;stroke-dasharray:none;stroke-dashoffset:0;stroke-opacity:1;stop-color:#000000;stop-opacity:1"
         d="m -927.43982,64.461359 c -0.61804,0.05714 -1.21451,0.323697 -1.66966,0.745691 -0.45515,0.421993 -0.76609,0.997242 -0.86972,1.609204 -0.0871,0.514573 -0.0288,1.052844 0.1664,1.536857 0.19521,0.484016 0.52695,0.912018 0.94671,1.222148 0.41976,0.310128 0.92642,0.501295 1.44643,0.545703 0.52001,0.04441 1.05146,-0.05802 1.51773,-0.292489 0.24808,0.531301 0.65221,0.988839 1.14877,1.300696 0.49656,0.311857 1.08386,0.477003 1.67018,0.469739 0.58633,-0.0073 1.16962,-0.187015 1.6583,-0.51108 0.48868,-0.324065 0.88137,-0.791318 1.11621,-1.328601 0.31298,-0.716058 0.33804,-1.553077 0.0687,-2.286682 -0.26929,-0.733607 -0.83028,-1.355627 -1.53221,-1.699121 0.23506,0.268665 0.40406,0.594536 0.48783,0.941544 0.13156,0.54495 0.047,1.139209 -0.23151,1.625741 -0.2785,0.48653 -0.74815,0.860159 -1.28468,1.022676 -0.53653,0.162518 -1.1344,0.112238 -1.63607,-0.137976 -0.003,-0.0015 -0.006,-0.0031 -0.009,-0.0047 0.20754,-0.292011 0.36806,-0.617577 0.47129,-0.960664 0.20668,-0.686963 0.18067,-1.441447 -0.0729,-2.112533 -0.25343,-0.670864 -0.73305,-1.254249 -1.34204,-1.632975 0.0827,0.214803 0.15682,0.433011 0.22221,0.653707 0.14229,0.480218 0.24327,0.980345 0.20878,1.480013 -0.0345,0.499667 -0.21546,1.002233 -0.57258,1.353405 -0.19494,0.174239 -0.42373,0.310057 -0.66921,0.399976 -0.13926,0.05101 -0.28399,0.08704 -0.43098,0.10697 -0.40607,0.05508 -0.82804,-0.01402 -1.19528,-0.195853 -0.37403,-0.185201 -0.68932,-0.486452 -0.89141,-0.851628 -0.2021,-0.365175 -0.29027,-0.792401 -0.24857,-1.207678 0.0417,-0.415279 0.21301,-0.816606 0.48369,-1.134298 0.27068,-0.317692 0.63944,-0.55072 1.04283,-0.657841 z" /><path
         style="font-variation-settings:normal;opacity:1;vector-effect:none;fill:url(#linearGradient44340);fill-opacity:1;stroke:none;stroke-width:0.264583px;stroke-linecap:butt;stroke-linejoin:miter;stroke-miterlimit:4;stroke-dasharray:none;stroke-dashoffset:0;stroke-opacity:1;stop-color:#000000;stop-opacity:1"
         d="m -898.20053,64.187236 c -0.19643,-0.465094 -0.19643,-1.009536 0,-1.47463 0.23244,-0.550358 0.73213,-0.972667 1.30458,-1.14362 0.57245,-0.170953 1.20726,-0.0974 1.74228,0.168461 0.60755,0.301903 1.08817,0.850125 1.30797,1.491956 0.21981,0.641831 0.17617,1.369592 -0.11875,1.980561 0.55844,0.06689 1.07678,0.411063 1.35512,0.899789 0.16855,0.295948 0.25098,0.640287 0.23471,0.980477 -0.0163,0.340191 -0.13118,0.675092 -0.32721,0.953603 l -1.98454,1.622946 -1.08476,1.177266 -2.27044,-0.639088 -0.86614,-1.479991 -1.22771,-1.017494 -0.87455,-0.605451 0.29432,-2.589985 1.40416,-0.637185"
         id="path2207" /><path
         id="path2203"
         style="font-variation-settings:normal;opacity:1;vector-effect:none;fill:url(#linearGradient45483);fill-opacity:1;stroke:none;stroke-width:0.264583px;stroke-linecap:butt;stroke-linejoin:miter;stroke-miterlimit:4;stroke-dasharray:none;stroke-dashoffset:0;stroke-opacity:1;stop-color:#000000;stop-opacity:1"
         d="m -899.38726,63.873798 c -0.0591,2.11e-4 -0.11832,0.003 -0.17725,0.0078 -0.47152,0.03792 -0.9304,0.221656 -1.2976,0.519865 -0.36824,0.299053 -0.64272,0.711638 -0.77618,1.166854 -0.13346,0.455218 -0.12519,0.950922 0.0232,1.401465 0.14848,0.450543 0.43648,0.853816 0.81442,1.140499 0.37795,0.286683 0.84438,0.455441 1.31827,0.476973 -0.12463,0.849148 0.15433,1.74891 0.73742,2.378667 0.36755,0.396964 0.84886,0.687134 1.3715,0.826823 0.52265,0.139689 1.08486,0.1281 1.60145,-0.03256 0.51658,-0.16066 0.98563,-0.469613 1.33687,-0.881083 0.35123,-0.411469 0.58336,-0.923942 0.66094,-1.459342 0.36757,-0.04599 0.72215,-0.190714 1.01699,-0.414962 0.29485,-0.224249 0.52932,-0.527263 0.6718,-0.869198 0.2617,-0.628081 0.19511,-1.382924 -0.1726,-1.955436 -0.36771,-0.572511 -1.02633,-0.946744 -1.70636,-0.969966 0.42657,0.146703 0.78298,0.485328 0.95136,0.90382 0.10517,0.261405 0.13851,0.550921 0.0956,0.829407 -0.0429,0.278486 -0.1621,0.545098 -0.34106,0.762744 -0.17895,0.217645 -0.41718,0.385717 -0.68213,0.481625 -0.26494,0.09591 -0.55571,0.119325 -0.83251,0.06666 0.0408,0.335561 -0.0193,0.682604 -0.17053,0.984953 -0.15117,0.30235 -0.39279,0.55893 -0.68574,0.727604 -0.31871,0.183506 -0.69708,0.261877 -1.06247,0.220142 -0.36539,-0.04173 -0.71584,-0.203587 -0.98495,-0.454236 -0.26912,-0.250649 -0.45541,-0.588826 -0.52297,-0.95033 -0.003,-0.01779 -0.006,-0.03586 -0.009,-0.05374 0.0573,-0.01097 0.11429,-0.02423 0.17054,-0.03979 0.47457,-0.131301 0.9012,-0.422208 1.20819,-0.807186 0.25971,-0.325687 0.43532,-0.717991 0.5054,-1.128613 0.0701,-0.410624 0.0341,-0.838575 -0.10284,-1.231966 0.005,0.487942 -0.15397,0.976014 -0.44545,1.367358 -0.29148,0.391345 -0.714,0.683395 -1.18287,0.818555 -0.25691,0.07406 -0.52945,0.09971 -0.7953,0.07235 -0.0771,-0.0099 -0.15376,-0.02419 -0.22893,-0.04393 -0.33485,-0.0879 -0.64356,-0.273341 -0.8785,-0.527617 -0.26316,-0.284815 -0.43203,-0.655305 -0.47439,-1.040763 -0.0123,-0.112017 -0.0139,-0.22512 -0.005,-0.337447 0.0212,-0.274195 0.104,-0.544099 0.24237,-0.781864 0.19502,-0.33517 0.49972,-0.604969 0.85576,-0.758611 0.35605,-0.15364 0.7613,-0.189848 1.13895,-0.101802 -0.35888,-0.206226 -0.7727,-0.315156 -1.18649,-0.313676 z" /><path
         style="font-variation-settings:normal;opacity:1;vector-effect:none;fill:url(#linearGradient42852);fill-opacity:1;stroke:none;stroke-width:0.264583px;stroke-linecap:butt;stroke-linejoin:miter;stroke-miterlimit:4;stroke-dasharray:none;stroke-dashoffset:0;stroke-opacity:1;stop-color:#000000;stop-opacity:1"
         d="m -909.9656,70.398365 c -0.0968,-0.372981 -0.0968,-0.770649 0,-1.14363 0.16601,-0.639664 0.62536,-1.196884 1.2216,-1.481889 0.59624,-0.285006 1.31834,-0.292523 1.92039,-0.01999 0.60204,0.27253 1.07289,0.820066 1.25218,1.456135 0.17929,0.636069 0.0637,1.348904 -0.30737,1.895737 0.26062,-0.147141 0.56794,-0.210035 0.86541,-0.177104 0.29747,0.03293 0.5836,0.161521 0.80572,0.362103 0.33705,0.30436 0.51578,0.775324 0.46553,1.226666 -0.0503,0.451341 -0.3282,0.871458 -0.72394,1.09423 0.21616,0.793311 0.0433,1.683014 -0.45409,2.337714 -0.50873,0.66958 -1.34573,1.076768 -2.18655,1.063733 -0.84082,-0.01304 -1.66479,-0.445974 -2.15252,-1.131003 l -1.8668,0.172872 -0.9876,-1.165139 3e-5,-1.429537 -0.87274,-2.676184 1.99898,-0.87899"
         id="path2723" /><path
         id="path2719"
         style="font-variation-settings:normal;opacity:1;vector-effect:none;fill:url(#linearGradient45493);fill-opacity:1;stroke:none;stroke-width:0.264583px;stroke-linecap:butt;stroke-linejoin:miter;stroke-miterlimit:4;stroke-dasharray:none;stroke-dashoffset:0;stroke-opacity:1;stop-color:#000000;stop-opacity:1"
         d="m -911.34571,69.878083 c -0.26365,0.0048 -0.52627,0.06125 -0.76791,0.166915 -0.35397,0.154786 -0.66133,0.414632 -0.87281,0.737939 -0.21149,0.323306 -0.32659,0.709205 -0.3266,1.09554 0,0.386337 0.11512,0.771712 0.3266,1.095024 0.21147,0.323313 0.51884,0.583143 0.87281,0.737939 -0.34826,0.39856 -0.53459,0.934821 -0.50901,1.463477 0.0182,0.377112 0.1418,0.748274 0.35346,1.060917 0.15287,0.225793 0.35155,0.42013 0.5793,0.569991 -0.32623,0.168004 -0.6463,0.345624 -0.94517,0.558106 -1.15904,0.824038 -1.9279,2.174244 -2.04535,3.591512 l 2.56677,-0.452169 c 0.11776,-0.563695 0.40301,-1.091497 0.81029,-1.498617 0.5504,-0.550188 1.28963,-0.861684 1.92649,-1.308964 0.22185,-0.155803 0.43211,-0.330404 0.62529,-0.521415 0.33603,0.233881 0.7209,0.397702 1.12344,0.47284 0.51653,0.09642 1.05972,0.04808 1.55133,-0.13746 0.49161,-0.185538 0.93068,-0.507738 1.2547,-0.921391 0.32402,-0.413652 0.53186,-0.917455 0.59428,-1.439188 0.0624,-0.521734 -0.0209,-1.059989 -0.23822,-1.538408 -0.007,0.476357 -0.15539,0.949406 -0.42065,1.345138 -0.45944,0.685414 -1.2787,1.114532 -2.10375,1.101225 -0.29936,-0.0048 -0.59586,-0.06813 -0.87333,-0.179834 0.29308,-0.715342 0.33712,-1.543968 0.045,-2.259294 -0.23307,-0.570734 -0.67614,-1.053031 -1.22473,-1.334285 0.23015,0.393177 0.35225,0.848732 0.34985,1.304313 -0.002,0.455731 -0.12939,0.909873 -0.36381,1.300696 -0.059,0.09831 -0.12397,0.19233 -0.1943,0.281636 -0.0933,0.09879 -0.20455,0.180979 -0.32711,0.239779 -0.26811,0.128626 -0.58833,0.143242 -0.86713,0.03979 -0.2788,-0.103452 -0.51218,-0.323443 -0.63149,-0.59583 -0.11931,-0.272386 -0.12333,-0.5931 -0.0103,-0.868164 0.113,-0.275064 0.34119,-0.500963 0.61753,-0.610815 -0.35869,0.0327 -0.72768,-0.0635 -1.02474,-0.267167 -0.29707,-0.203668 -0.51977,-0.51302 -0.61857,-0.859379 -0.0812,-0.284751 -0.079,-0.592769 0.006,-0.876433 0.085,-0.283662 0.25209,-0.54212 0.47646,-0.735355 0.22437,-0.193235 0.50476,-0.320822 0.79788,-0.362769 0.29313,-0.04195 0.59809,0.002 0.86765,0.12454 -0.28376,-0.258143 -0.64363,-0.432304 -1.02216,-0.494543 -0.11829,-0.01945 -0.23828,-0.028 -0.35812,-0.02584 z" /><path
         id="path3538"
         style="font-variation-settings:normal;opacity:1;vector-effect:none;fill:url(#linearGradient31892);fill-opacity:1;stroke:none;stroke-width:0.264583px;stroke-linecap:butt;stroke-linejoin:miter;stroke-miterlimit:4;stroke-dasharray:none;stroke-dashoffset:0;stroke-opacity:1;stop-color:#000000;stop-opacity:1"
         d="m -920.8242,78.007819 c -0.20019,0.0023 -0.39988,0.02754 -0.59428,0.07648 l -1.28364,2.270146 v 7.652246 l 3.08302,-0.992188 4.93819,-2.118733 -0.077,-5.130953 -2.06964,1.767334 -1.32861,-1.026294 c -0.0352,-0.746249 -0.40653,-1.469906 -0.99218,-1.933732 -0.47144,-0.373375 -1.07529,-0.571344 -1.67587,-0.564307 z m 17.34726,0 c -0.5756,0.0096 -1.14914,0.206492 -1.60093,0.564307 -0.58566,0.463826 -0.95754,1.187482 -0.99271,1.933732 l -1.3286,1.026294 -2.06912,-1.767334 -0.0775,5.130953 4.93872,2.118733 3.08301,0.992188 v -7.652246 l -1.28364,-2.270146 c -0.21869,-0.05506 -0.44397,-0.08022 -0.66921,-0.07648 z" /><path
         id="path4961"
         style="font-variation-settings:normal;opacity:1;vector-effect:none;fill:url(#linearGradient37439);fill-opacity:1;stroke:none;stroke-width:0.264583px;stroke-linecap:butt;stroke-linejoin:miter;stroke-miterlimit:4;stroke-dasharray:none;stroke-dashoffset:0;stroke-opacity:1;stop-color:#000000;stop-opacity:1"
         d="m -914.68064,80.955215 -5.00589,3.982186 0.15968,1.151867 4.05298,-3.081982 c 0.17206,0.07077 0.34037,0.149839 0.50436,0.237711 0.59604,0.319388 1.13217,0.750298 1.57251,1.263489 z m 5.13457,0 -1.28416,3.553271 c 0.44034,-0.51319 0.97648,-0.944101 1.57252,-1.263489 0.16398,-0.08787 0.33281,-0.166945 0.50488,-0.237711 l 4.05298,3.081982 0.15968,-1.151867 z" /><path
         id="path3542"
         style="font-variation-settings:normal;opacity:1;vector-effect:none;fill:url(#linearGradient31900);fill-opacity:1;stroke:none;stroke-width:0.264583px;stroke-linecap:butt;stroke-linejoin:miter;stroke-miterlimit:4;stroke-dasharray:none;stroke-dashoffset:0;stroke-opacity:1;stop-color:#000000;stop-opacity:1"
         d="m -921.41848,78.0843 c -0.53045,0.17369 -0.98338,0.572142 -1.22266,1.07642 -0.22818,0.480889 -0.25921,1.051469 -0.0873,1.554944 0.23964,0.272076 0.49169,0.533141 0.755,0.782381 v 5.735051 l 2.85874,-0.756543 v -3.784265 c -0.33235,0.110748 -0.70316,0.102009 -1.02991,-0.02429 -0.32676,-0.126298 -0.60679,-0.368895 -0.77825,-0.674378 -0.17147,-0.305481 -0.23291,-0.671244 -0.17053,-1.015958 0.0624,-0.344716 0.24808,-0.665913 0.51573,-0.891936 0.33902,-0.286299 0.80728,-0.412954 1.24437,-0.336413 -0.0873,-0.275144 -0.22474,-0.534618 -0.4036,-0.761194 -0.40559,-0.513809 -1.02925,-0.848918 -1.68155,-0.903821 z m 18.61075,0 c -0.6523,0.0549 -1.27596,0.390012 -1.68155,0.903821 -0.17886,0.226576 -0.31629,0.48605 -0.40359,0.761194 0.43709,-0.07654 0.90535,0.05011 1.24437,0.336413 0.26765,0.226023 0.45333,0.54722 0.51573,0.891936 0.0624,0.344714 9.3e-4,0.710477 -0.17053,1.015958 -0.17146,0.305483 -0.45149,0.54808 -0.77825,0.674378 -0.32675,0.126299 -0.69756,0.135036 -1.02991,0.02429 v 3.784265 l 2.85874,0.756543 v -5.735051 c 0.26331,-0.24924 0.51535,-0.510305 0.75499,-0.782381 0.17191,-0.503475 0.14085,-1.074055 -0.0873,-1.554944 -0.23928,-0.504278 -0.69222,-0.90273 -1.22267,-1.07642 z" /><path
         id="path4085"
         style="font-variation-settings:normal;opacity:1;vector-effect:none;fill:url(#linearGradient37431);fill-opacity:1;stroke:none;stroke-width:0.264583px;stroke-linecap:butt;stroke-linejoin:miter;stroke-miterlimit:4;stroke-dasharray:none;stroke-dashoffset:0;stroke-opacity:1;stop-color:#000000;stop-opacity:1"
         d="m -919.62117,80.310004 c -0.1923,9.92e-4 -0.38458,0.05948 -0.54105,0.171566 -0.25036,0.179336 -0.40129,0.489709 -0.38758,0.797367 0.0137,0.30766 0.19149,0.60329 0.45682,0.759644 0.26532,0.156354 0.60996,0.168586 0.88574,0.03152 l 2.71611,2.076876 2.43913,0.642338 -4.63951,-3.568774 c -0.003,-0.182736 -0.062,-0.364201 -0.1664,-0.514181 -0.10454,-0.150119 -0.25436,-0.268342 -0.42478,-0.334863 -0.10758,-0.04199 -0.2231,-0.06209 -0.33848,-0.06149 z m 15.01614,0 c -0.11539,-5.94e-4 -0.2309,0.0195 -0.33848,0.06149 -0.17042,0.06652 -0.32024,0.184744 -0.42479,0.334863 -0.10454,0.15012 -0.16361,0.331789 -0.16691,0.514698 l -4.63899,3.568257 2.43912,-0.642338 2.71612,-2.076876 c 0.27578,0.137061 0.62041,0.124832 0.88573,-0.03152 0.26532,-0.156354 0.44311,-0.451984 0.45682,-0.759644 0.0137,-0.307659 -0.13721,-0.618031 -0.38757,-0.797367 -0.15648,-0.112085 -0.34875,-0.170575 -0.54105,-0.171566 z" /><path
         id="path4676"
         style="font-variation-settings:normal;opacity:1;vector-effect:none;fill:url(#linearGradient38575);fill-opacity:1;stroke:none;stroke-width:0.264583px;stroke-linecap:butt;stroke-linejoin:miter;stroke-miterlimit:4;stroke-dasharray:none;stroke-dashoffset:0;stroke-opacity:1;stop-color:#000000;stop-opacity:1"
         d="m -913.65254,77.839354 c -0.4676,0.247871 -0.85187,0.649314 -1.07849,1.12758 -0.14789,0.312099 -0.23023,0.655708 -0.23823,1.000972 v 5.655469 3.594613 h 2.85564 c 0,-0.02026 8.1e-4,-0.03987 10e-4,-0.05994 v 0.05994 h 2.85513 v -3.594613 -5.655469 c -0.008,-0.345264 -0.0898,-0.688873 -0.23772,-1.000972 -0.2266,-0.478264 -0.61088,-0.879709 -1.07848,-1.12758 -0.87209,-0.32925 -2.23017,-0.439735 -3.07888,0 z" /><path
         id="path4955"
         style="font-variation-settings:normal;display:inline;opacity:1;vector-effect:none;fill:url(#linearGradient59733);fill-opacity:1;stroke:none;stroke-width:0.190003px;stroke-linecap:butt;stroke-linejoin:miter;stroke-miterlimit:4;stroke-dasharray:none;stroke-dashoffset:0;stroke-opacity:1;stop-color:#000000;stop-opacity:1"
         d="m -912.1131,78.560757 c -0.3754,0.0022 -0.74966,0.115697 -1.06299,0.322461 -0.31333,0.206765 -0.56454,0.505781 -0.71417,0.850077 -0.10391,0.239142 -0.15974,0.499423 -0.16174,0.76016 v 4.295862 2.730066 h 1.9389 1.9389 v -2.730066 -4.295862 c -0.002,-0.260737 -0.0578,-0.521018 -0.16175,-0.76016 -0.14963,-0.344296 -0.40084,-0.643312 -0.71417,-0.850077 -0.31333,-0.206764 -0.68758,-0.320298 -1.06298,-0.322461 z m -0.0248,0.988053 c 0.008,-2.06e-4 0.0166,0 0.0248,0 0.52775,0 0.95239,0.424648 0.95239,0.952397 0,0.527749 -0.42464,0.952397 -0.95239,0.952397 -0.52775,0 -0.95292,-0.424648 -0.95292,-0.952397 0,-0.519503 0.41185,-0.939404 0.92811,-0.952397 z" /><path
         id="rect749"
         style="fill:#942341;fill-opacity:1;stroke-width:1.25622;stroke-linecap:round;stroke-linejoin:round;stroke-miterlimit:1.5;paint-order:stroke markers fill;stop-color:#000000"
         d="m -912.11362,59.977395 c -0.74447,0 -1.34359,0.599114 -1.34359,1.343587 0,0.744474 0.59912,1.344104 1.34359,1.344104 0.74447,0 1.34359,-0.59963 1.34359,-1.344104 0,-0.744473 -0.59912,-1.343587 -1.34359,-1.343587 z m -4.25762,0.297139 c -0.71153,0 -1.28416,0.573144 -1.28416,1.284677 0,0.711532 0.57263,1.284159 1.28416,1.284159 0.71153,0 1.28467,-0.572627 1.28467,-1.284159 0,-0.711533 -0.57314,-1.284677 -1.28467,-1.284677 z m 8.51524,0 c -0.71153,0 -1.28467,0.573144 -1.28467,1.284677 0,0.711532 0.57314,1.284159 1.28467,1.284159 0.71153,0 1.28416,-0.572627 1.28416,-1.284159 0,-0.711533 -0.57263,-1.284677 -1.28416,-1.284677 z" /><path
         id="path2735"
         style="color:#000000;fill:url(#linearGradient29278);fill-opacity:1;stroke-linecap:round;stroke-linejoin:round;-inkscape-stroke:none"
         d="m -912.11517,56.593622 a 0.66145998,0.66145998 0 0 0 -0.66042,0.662492 v 4.065902 a 0.66145998,0.66145998 0 0 0 0.66249,0.660425 0.66145998,0.66145998 0 0 0 0.6599,-0.661976 v -4.066418 a 0.66145998,0.66145998 0 0 0 -0.66197,-0.660425 z m 5.34903,0.948779 a 0.66145998,0.66145998 0 0 0 -0.601,0.45372 l -1.11931,3.353283 a 0.66145998,0.66145998 0 0 0 0.41806,0.838192 0.66145998,0.66145998 0 0 0 0.83768,-0.420129 l 1.11931,-3.353284 a 0.66145998,0.66145998 0 0 0 -0.41806,-0.838192 0.66145998,0.66145998 0 0 0 -0.23668,-0.03359 z m -10.69702,0.001 a 0.66145998,0.66145998 0 0 0 -0.23617,0.03256 0.66145998,0.66145998 0 0 0 -0.41806,0.838192 l 1.11931,3.353284 a 0.66145998,0.66145998 0 0 0 0.83613,0.420129 0.66145998,0.66145998 0 0 0 0.41806,-0.838192 l -1.11931,-3.353283 a 0.66145998,0.66145998 0 0 0 -0.59996,-0.452686 z" /><path
         id="rect5646"
         style="fill:url(#linearGradient30759);fill-opacity:1;stroke:none;stroke-width:0.878311;stroke-linecap:round;stroke-linejoin:round;stroke-miterlimit:1.5;paint-order:stroke markers fill;stop-color:#000000"
         d="m -922.24174,56.656008 c -0.68324,0.300298 -0.95897,1.085377 -0.63497,1.714576 0.32399,0.629201 1.05917,0.884441 1.66576,0.613707 5.60979,-2.503809 12.29037,-2.415149 18.01988,-0.04459 0.61952,0.256326 1.35041,-0.02244 1.65423,-0.661326 0.30382,-0.63889 0.008,-1.414254 -0.67949,-1.697912 -6.3576,-2.623337 -13.70669,-2.701678 -20.02541,0.07554 z"
         class="UnoptimicedTransforms"
         transform="matrix(0.89399411,0,0,1,-96.600142,1.3622649)" /><rect
         style="fill:#ffffff;stroke:none;stroke-width:1.1382;stroke-linecap:round;stroke-linejoin:round;stroke-miterlimit:1.5;stroke-dasharray:none;paint-order:stroke markers fill;stop-color:#000000"
         id="rect15303"
         width="1.9052324"
         height="1.9052324"
         x="-913.0658"
         y="94.603859"
         rx="10.863951"
         ry="1.9052324" /><path
         style="font-variation-settings:normal;opacity:1;vector-effect:none;fill:#ffffff;fill-opacity:1;stroke:none;stroke-width:0.264583px;stroke-linecap:butt;stroke-linejoin:miter;stroke-miterlimit:4;stroke-dasharray:none;stroke-dashoffset:0;stroke-opacity:1;stop-color:#000000;stop-opacity:1"
         d="m -899.17492,90.832338 c -1.32487,-2.232264 -3.23844,-4.111566 -5.49427,-5.395891 -2.25584,-1.284326 -4.84861,-1.970642 -7.44443,-1.970564 -2.59567,7.8e-5 -5.18825,0.686467 -7.44392,1.970786 -2.25567,1.284319 -4.16909,3.163534 -5.49388,5.395669 l 4.45666,3.497998 c 0.81001,-1.533677 2.04476,-2.840238 3.53025,-3.735566 1.48548,-0.895329 3.21748,-1.376875 4.95192,-1.376782 1.73427,9.3e-5 3.46604,0.481728 4.95134,1.377047 1.48529,0.89532 2.71987,2.201776 3.5298,3.735301"
         id="path17631" /><rect
         style="fill:#420338;fill-opacity:1;stroke:none;stroke-width:1.1382;stroke-linecap:round;stroke-linejoin:round;stroke-miterlimit:1.5;stroke-dasharray:none;paint-order:stroke markers fill;stop-color:#000000"
         id="rect15305"
         width="1.9052324"
         height="1.9052324"
         x="-921.97345"
         y="89.341293"
         rx="10.863951"
         ry="1.9052324" /><path
         id="path60300"
         style="color:#000000;-inkscape-font-specification:'Bebas Neue';fill:#420338;stroke-width:0.178776;-inkscape-stroke:none"
         d="m -912.033,84.352135 -0.0176,0.06511 c -0.0707,0.24792 -0.13767,0.497196 -0.19999,0.746724 -0.24586,0.989828 -0.42494,1.983472 -0.54157,2.976046 l -0.0129,0.107487 0.10749,-0.0078 c 0.18843,-0.01305 0.37666,-0.02091 0.5643,-0.02015 h 0.003 c 0.0226,-5.78e-4 0.0447,3.69e-4 0.0672,0 l 0.0749,-0.0026 0.0129,-0.07235 c 0.0367,-0.215434 0.0776,-0.429375 0.11989,-0.643888 0.22948,0.0033 0.45946,0.01337 0.68885,0.03462 0.0171,0.217374 0.033,0.434391 0.045,0.65164 l 0.005,0.07493 0.0749,0.0078 c 0.22754,0.02614 0.45403,0.063 0.68161,0.107487 l 0.10749,0.01964 v -0.109554 c -0.006,-1.253695 -0.10329,-2.513299 -0.29973,-3.772896 l -0.0103,-0.06718 -0.0698,-0.0078 c -0.43958,-0.05061 -0.88202,-0.08042 -1.33066,-0.08733 z m -1.33842,0.07751 -0.0899,0.0098 c -0.46238,0.05346 -0.91879,0.130248 -1.36839,0.227376 l -0.0698,0.01499 v 0.06976 c -0.0102,0.783679 0.0225,1.564355 0.0698,2.341976 -0.34438,-0.699499 -0.70307,-1.394343 -1.09864,-2.074808 l -0.0346,-0.05994 -0.0698,0.02015 c -0.43651,0.133276 -0.86385,0.284848 -1.28364,0.454236 l -0.0822,0.03514 0.0326,0.08268 1.4304,3.507796 0.0822,-0.03514 c 0.19568,-0.08087 0.39234,-0.156755 0.58962,-0.226859 l 0.0847,-0.02791 -0.65939,-1.889807 c 0.33612,0.565191 0.67913,1.127978 0.97669,1.707906 l 0.0346,0.0646 0.0703,-0.02222 c 0.19007,-0.05772 0.3808,-0.108697 0.57154,-0.155029 l 0.0724,-0.01757 -0.003,-0.07441 c -0.0325,-0.642455 -0.0131,-1.28898 -0.003,-1.935283 l 0.35501,1.935283 0.0899,-0.01757 c 0.21591,-0.04019 0.43073,-0.07393 0.64647,-0.09767 l 0.0899,-0.0072 z m 4.10982,0.237195 -0.0176,0.08733 -0.83871,3.672644 0.0873,0.02015 c 0.60117,0.139887 1.19953,0.338936 1.78748,0.587044 l 0.0827,0.03462 0.27182,-0.65164 -0.0822,-0.03514 c -0.35942,-0.151084 -0.72325,-0.281698 -1.09089,-0.396875 l 0.90847,-3.028239 -0.0847,-0.02791 c -0.30781,-0.09093 -0.62137,-0.171203 -0.93637,-0.241846 z m -2.13992,0.876432 c 0.066,0.436795 0.13021,0.87422 0.17467,1.311032 -0.16341,-0.01327 -0.32756,-0.02291 -0.49145,-0.02791 0.0927,-0.430314 0.20273,-0.856665 0.31678,-1.283126 z m 4.99143,0.05736 -0.0377,0.08268 -1.55546,3.455086 0.0801,0.03772 c 0.58389,0.265282 1.15509,0.575655 1.70739,0.92139 l 0.0749,0.04754 0.38241,-0.596863 -0.0775,-0.04754 c -0.33412,-0.210405 -0.67808,-0.405215 -1.02629,-0.589112 l 1.46813,-2.818949 -0.0801,-0.03979 c -0.28034,-0.146144 -0.56361,-0.284557 -0.8537,-0.414445 z m -11.78481,0.348299 c -0.26126,-0.0023 -0.56084,0.08689 -0.88677,0.26355 -0.003,0.0015 -0.005,8.98e-4 -0.008,0.0026 -0.41001,0.223891 -0.67986,0.487056 -0.80409,0.774113 -0.12476,0.282643 -0.0943,0.574913 0.0749,0.838709 0.12643,0.197186 0.31078,0.334888 0.53692,0.411861 0.22664,0.07461 0.53628,0.105124 0.94361,0.119889 0.31118,0.0093 0.53623,0.0525 0.6594,0.104903 0.12195,0.04974 0.2094,0.130335 0.27181,0.252181 0.052,0.101668 0.0553,0.173663 0.0326,0.22996 -0.0213,0.05341 -0.0756,0.110234 -0.17983,0.166915 -0.10508,0.05713 -0.18462,0.07008 -0.24443,0.05736 -0.0598,-0.01266 -0.11294,-0.0501 -0.16485,-0.139526 l -0.17208,-0.29714 -0.0775,0.04496 c -0.21994,0.12703 -0.43762,0.260641 -0.65164,0.396875 l -0.0749,0.04754 0.16226,0.252181 c 0.17177,0.267331 0.40315,0.428098 0.67386,0.471806 0.27102,0.0407 0.56695,-0.03976 0.89401,-0.217041 0.3308,-0.179311 0.55981,-0.383425 0.67437,-0.636654 0.11685,-0.252268 0.11084,-0.54016 -0.0201,-0.834057 -0.10124,-0.226998 -0.25407,-0.404376 -0.46199,-0.516765 -0.20789,-0.112265 -0.52004,-0.185698 -0.94102,-0.209806 -0.32218,-0.01858 -0.55458,-0.04512 -0.69454,-0.08733 h -0.003 c -0.1323,-0.04416 -0.2177,-0.112306 -0.27233,-0.207223 -0.0492,-0.08539 -0.0549,-0.145743 -0.03,-0.207222 0.0249,-0.06148 0.0893,-0.130371 0.21239,-0.197404 0.11965,-0.06517 0.21436,-0.08491 0.28216,-0.07235 l 0.003,0.0026 c 0.0625,0.0097 0.11272,0.04498 0.16226,0.14211 l 0.12713,0.250114 0.0801,-0.04031 c 0.24654,-0.125713 0.4981,-0.24415 0.75138,-0.357084 l 0.0801,-0.03721 -0.0977,-0.222209 c -0.13101,-0.292926 -0.35719,-0.484091 -0.66146,-0.534334 h -0.002 c -0.0561,-0.01028 -0.11437,-0.01601 -0.17466,-0.01654 z" /><path
         id="text17597"
         style="font-style:normal;font-variant:normal;font-weight:normal;font-stretch:normal;font-size:3.7393px;line-height:1.25;font-family:'Bebas Neue';-inkscape-font-specification:'Bebas Neue';text-align:center;letter-spacing:0px;word-spacing:0px;text-anchor:middle;fill:#ffffff;stroke:#ffffff;stroke-width:0.134524"
         d="m -910.84135,90.501113 c -0.31596,0 -0.55707,0.07543 -0.72295,0.22531 -0.16588,0.146621 -0.24908,0.354849 -0.24908,0.625284 0,0.198749 0.0531,0.378295 0.15968,0.537952 0.1067,0.1564 0.29471,0.332123 0.56327,0.527616 0.21327,0.153147 0.35974,0.285071 0.43874,0.395842 0.0791,0.107527 0.11782,0.232849 0.11782,0.376204 0,0.120561 -0.0297,0.208675 -0.0889,0.264067 -0.0552,0.05211 -0.13798,0.07803 -0.24857,0.07803 -0.22513,0 -0.33745,-0.110723 -0.33745,-0.332279 v -0.234094 h -0.6165 v 0.195337 c 0,0.276961 0.0809,0.490379 0.24288,0.640271 0.16193,0.146622 0.4013,0.220141 0.71727,0.220141 0.3199,0 0.56275,-0.07542 0.72864,-0.225309 0.16981,-0.149878 0.25425,-0.364718 0.25425,-0.644922 0,-0.215047 -0.0514,-0.402585 -0.154,-0.56224 -0.10268,-0.159653 -0.29024,-0.337278 -0.56275,-0.532784 -0.21329,-0.153132 -0.36096,-0.283157 -0.4439,-0.390673 -0.079,-0.107528 -0.11938,-0.223449 -0.11938,-0.347266 0,-0.218306 0.10937,-0.327112 0.3266,-0.327112 0.10659,0 0.18707,0.0273 0.24236,0.08268 0.0552,0.05213 0.0832,0.136957 0.0832,0.254249 v 0.176216 h 0.61598 v -0.14211 c 0,-0.276958 -0.0803,-0.488481 -0.24236,-0.635103 -0.15799,-0.14988 -0.39285,-0.22531 -0.70487,-0.22531 z m -3.2768,0.04909 v 2.610177 c 0,0.276961 0.0832,0.490379 0.24908,0.640271 0.16588,0.146622 0.40701,0.220141 0.72296,0.220141 0.31595,0 0.55707,-0.07352 0.72295,-0.220141 0.16588,-0.149892 0.24856,-0.36331 0.24856,-0.640271 v -2.610177 h -0.62787 v 2.648934 c 0,0.117292 -0.03,0.202111 -0.0894,0.254248 -0.0552,0.05211 -0.13571,0.07803 -0.24236,0.07803 -0.1066,0 -0.18983,-0.0259 -0.24908,-0.07803 -0.0552,-0.05214 -0.0832,-0.136956 -0.0832,-0.254248 v -2.648934 z m 4.43746,0 v 0.488859 h 0.68109 V 93.9717 h 0.65216 v -2.932638 h 0.64595 c -0.36064,-0.186336 -0.73331,-0.349625 -1.11466,-0.488859 z m -5.73557,0.0026 c -0.3641,0.133217 -0.72026,0.287851 -1.06557,0.464054 v 2.954859 h 0.65216 v -1.466578 h 0.22427 c 0.15009,0 0.25545,0.0311 0.31471,0.09302 0.0632,0.06189 0.0946,0.170725 0.0946,0.327112 v 0.626318 c 0,0.127072 0.005,0.215184 0.0119,0.264067 0.008,0.04887 0.0238,0.100687 0.0475,0.156063 h 0.66301 c -0.0316,-0.05866 -0.0511,-0.117558 -0.0589,-0.176217 -0.008,-0.06191 -0.0124,-0.141508 -0.0124,-0.239262 v -0.600997 c 0,-0.202017 -0.0332,-0.363661 -0.10025,-0.484208 -0.0633,-0.120561 -0.17377,-0.200169 -0.33176,-0.239262 v -0.0098 c 0.28438,-0.09448 0.42685,-0.319215 0.42685,-0.674378 v -0.210323 c 0,-0.267178 -0.0769,-0.464107 -0.231,-0.591178 -0.13821,-0.116951 -0.35057,-0.181251 -0.6351,-0.19327 z m -0.41341,0.486275 h 0.29559 c 0.11454,0 0.19823,0.02781 0.24959,0.0832 0.0552,0.0554 0.0822,0.145431 0.0822,0.269234 v 0.26355 c 0,0.130339 -0.0331,0.223143 -0.10025,0.278536 -0.0632,0.05539 -0.16062,0.0832 -0.29094,0.0832 h -0.23616 z" /><rect
         style="fill:#420338;fill-opacity:1;stroke:none;stroke-width:1.1382;stroke-linecap:round;stroke-linejoin:round;stroke-miterlimit:1.5;stroke-dasharray:none;paint-order:stroke markers fill;stop-color:#000000"
         id="rect17602"
         width="1.9052324"
         height="1.9052324"
         x="902.25275"
         y="89.341293"
         rx="10.863951"
         ry="1.9052324"
         transform="scale(-1,1)" /></g></g></svg>
